<?xml version="1.0" encoding="UTF-8"?>
<svg id="TEXTO" xmlns="http://www.w3.org/2000/svg" viewBox="0 0 1000 1300">
<g>
<g>
<path d="M805.5,212.31c5.51,0,10,4.49,10,10V843.31H184.5V222.31c0-5.51,4.49-10,10-10H805.5m0-30H194.5c-22.09,0-40,17.91-40,40V873.31H845.5V222.31c0-22.09-17.91-40-40-40h0Z"/>
<rect x="232.86" y="260.67" width="534.28" height="534.28" rx="20.95" ry="20.95" fill="#e5e7ef"/>
</g>
<rect x="46" y="843" width="908" height="27" rx="13.5" ry="13.5" fill="#585858"/>
<path d="M809,962H191c-50.81,0-92-41.19-92-92h0s802,0,802,0h0c0,50.81-41.19,92-92,92Z"/>
<path d="M768.77,971.07c-14.11-16.13-35.01-19.44-54.67-9.2-9.98-9.67-28.38-9.98-44.13-4.35-5.68,2.03-75.15,29.56-97.52,38.43-8.35-14.2-25.85-19.47-32.86-21.57-11.39-3.42-166.66-31.01-225.5-18.17-20.04,4.37-173.71,61.92-180.24,64.37-4.65,1.74-7.01,6.93-5.27,11.59,1.75,4.66,6.94,7.01,11.59,5.27,44.16-16.55,162.17-60.23,177.76-63.63,51.68-11.28,201.93,13.46,216.5,17.83,17.97,5.39,25.09,12.04,24.6,22.97-.57,12.63-7.05,18.07-25.67,21.56-12.73,2.39-120.55,10.82-161.02,13.87-4.96,.37-8.67,4.69-8.3,9.65,.36,4.73,4.3,8.33,8.96,8.32,.23,0,.46,0,.69-.03,2.63-.2,31.33-2.36,64.04-4.99,8.42,4.51,41.14,22,55.26,29.06,21.87,10.93,36.25,2.87,54.47-7.34,2.17-1.22,4.46-2.5,6.87-3.81,11.02-6.01,147.26-89.29,163.74-100.45,5.16-3.49,23.08-13.64,37.18,2.48,3.41,3.9,5.03,9.02,4.55,14.41-.56,6.33-3.9,12.23-9.4,16.63-6.76,5.41-171.11,134.74-191.44,148.59-35.01,23.84-77.4,30.45-125.98,19.65-10.79-2.4-137.83-38.25-203.5-56.87-1.85-.53-3.83-.44-5.64,.24l-45,17c-4.65,1.76-7,6.95-5.24,11.6,1.76,4.65,6.95,7,11.6,5.24l42.22-15.95c24.7,7,188.44,53.38,201.65,56.32,16.47,3.66,32.32,5.49,47.52,5.49,34.3,0,65.28-9.3,92.5-27.83,21.31-14.51,186.19-144.32,192.56-149.41,9.37-7.5,15.08-17.83,16.08-29.09,.92-10.33-2.25-20.23-8.93-27.86Zm-223.08,94.03c-2.47,1.35-4.82,2.66-7.05,3.91-18.45,10.34-24.89,13.3-37.62,6.94-7-3.5-18.97-9.78-30.12-15.68,30.98-2.6,59.01-5.16,65.76-6.42,10.64-2,38.92-7.3,40.33-38.44,.03-.65,.03-1.28,.03-1.91,34.65-13.74,94.17-37.3,99.01-39.03,7.65-2.73,15.7-3.29,21-1.9-36.67,23.13-141.76,87.3-151.34,92.52Z"/>
<polygon points="0 1300 17.07 1300 195 1188 126 997 0 1032.71 0 1300" fill="#585858"/>
</g>
<g>
<rect x="228.75" y="73.41" width="10.85" height="9.94"/>
<rect x="228.75" y="89.61" width="10.85" height="48.6"/>
<polygon points="256.69 122.01 298.54 122.01 298.54 111.84 267.53 111.84 267.53 93.52 293.14 93.52 293.14 83.35 267.53 83.35 267.53 67.38 298.54 67.38 298.54 57.21 256.69 57.21 256.69 122.01"/>
<path d="M341.58,96.65c-2.33-1.27-5.42-2.41-9.29-3.4-3.78-.96-6.62-1.77-8.53-2.43-1.91-.66-3.17-1.32-3.8-1.98-.63-.66-.95-1.46-.95-2.38,0-1.65,.78-2.93,2.34-3.85s3.62-1.3,6.17-1.15c2.67,.15,4.81,.83,6.41,2.03,1.6,1.2,2.54,2.83,2.81,4.9l11.07-1.98c-.42-2.91-1.53-5.45-3.33-7.61-1.8-2.16-4.16-3.83-7.09-5s-6.28-1.75-10.06-1.75-7.23,.61-10.08,1.82c-2.85,1.22-5.07,2.95-6.66,5.2s-2.38,4.89-2.38,7.92c0,2.43,.52,4.5,1.58,6.21,1.05,1.71,2.77,3.19,5.17,4.43,2.4,1.25,5.64,2.41,9.72,3.49,3.66,.96,6.38,1.75,8.15,2.38,1.77,.63,2.92,1.28,3.44,1.96,.52,.67,.79,1.57,.79,2.68,0,1.8-.71,3.22-2.14,4.25s-3.44,1.55-6.05,1.55c-2.97,0-5.43-.69-7.38-2.07-1.95-1.38-3.21-3.27-3.78-5.67l-11.07,1.71c.81,4.89,3.09,8.68,6.84,11.38s8.62,4.05,14.62,4.05,11.18-1.39,14.74-4.18c3.55-2.79,5.33-6.63,5.33-11.52,0-2.52-.52-4.66-1.55-6.43-1.04-1.77-2.71-3.29-5.04-4.57Z"/>
<path d="M372.2,84.23c1.83-1.33,4.15-2,6.97-2,2.49,0,4.71,.73,6.66,2.18,1.95,1.46,3.34,3.49,4.18,6.1l10.8-2.92c-1.17-4.8-3.67-8.59-7.49-11.36-3.83-2.78-8.5-4.16-14.02-4.16-4.92,0-9.17,1.1-12.73,3.31-3.57,2.21-6.32,5.24-8.26,9.09-1.94,3.86-2.92,8.27-2.95,13.25,.03,4.89,.98,9.27,2.86,13.14,1.87,3.87,4.58,6.92,8.12,9.16,3.54,2.24,7.81,3.35,12.83,3.35,5.43,0,10.02-1.33,13.77-3.98,3.75-2.65,6.38-6.46,7.88-11.41l-11.07-2.47c-.84,2.49-2.09,4.39-3.76,5.71s-3.94,1.98-6.82,1.98c-4.08,0-7.16-1.42-9.22-4.27-2.07-2.85-3.11-6.58-3.11-11.21,0-2.97,.43-5.62,1.3-7.96,.87-2.34,2.22-4.18,4.05-5.51Z"/>
<path d="M447.4,81.1c-1.59-3.21-4.03-5.52-7.31-6.93s-7.09-2.12-11.41-2.12c-5.73,0-10.28,1.25-13.66,3.74s-5.66,5.79-6.86,9.9l9.9,3.11c.81-2.49,2.23-4.25,4.27-5.26s4.16-1.53,6.35-1.53c3.63,0,6.21,.79,7.74,2.38,1.27,1.32,2,3.26,2.19,5.81-1.95,.29-3.87,.57-5.72,.83-3.08,.44-5.92,.91-8.55,1.42-2.62,.51-4.91,1.08-6.86,1.71-2.58,.87-4.68,1.99-6.3,3.35-1.62,1.37-2.82,2.99-3.6,4.86-.78,1.88-1.17,3.98-1.17,6.32,0,2.67,.62,5.12,1.87,7.33,1.25,2.22,3.08,4,5.51,5.33,2.43,1.33,5.4,2,8.91,2,4.38,0,8.03-.82,10.96-2.45,2.25-1.26,4.28-3.08,6.1-5.45v6.55h9.5v-29.83c0-2.1-.09-4.04-.27-5.83s-.71-3.53-1.58-5.24Zm-9.99,25.56c-.36,1.11-1.06,2.29-2.09,3.55-1.04,1.26-2.42,2.33-4.16,3.2-1.74,.87-3.84,1.3-6.3,1.3-1.71,0-3.14-.27-4.3-.81s-2.03-1.27-2.63-2.18c-.6-.92-.9-1.97-.9-3.17,0-1.05,.23-1.96,.7-2.75,.46-.78,1.13-1.47,2-2.07,.87-.6,1.93-1.12,3.2-1.58,1.29-.42,2.77-.8,4.45-1.15,1.68-.34,3.69-.71,6.03-1.1,1.49-.25,3.19-.52,5.06-.82-.02,.83-.05,1.76-.09,2.82-.08,1.79-.4,3.37-.97,4.75Z"/>
<path d="M503.96,84.34c-.66-2.1-1.68-4.08-3.06-5.94-1.38-1.86-3.24-3.39-5.58-4.59-2.34-1.2-5.31-1.8-8.91-1.8-4.56,0-8.4,1-11.52,2.99-1.68,1.07-3.13,2.35-4.37,3.81v-5.41h-9.67v48.6h10.98v-24.97c0-2.97,.33-5.41,.99-7.31,.66-1.91,1.54-3.41,2.63-4.5,1.09-1.09,2.32-1.87,3.67-2.32,1.35-.45,2.71-.67,4.1-.67,2.58,0,4.63,.56,6.14,1.67,1.51,1.11,2.66,2.53,3.42,4.25,.76,1.73,1.25,3.52,1.46,5.38,.21,1.86,.32,3.56,.32,5.08v23.4h10.98v-27.13c0-1.17-.1-2.69-.29-4.57-.2-1.88-.62-3.86-1.28-5.96Z"/>
<path d="M550.78,75.59c-3.53-2.35-7.81-3.53-12.85-3.53-4.77,0-8.97,1.08-12.6,3.24-3.63,2.16-6.47,5.2-8.5,9.11-2.04,3.92-3.06,8.53-3.06,13.84,0,4.92,1.04,9.27,3.13,13.05,2.08,3.78,4.99,6.74,8.71,8.87s8.04,3.19,12.96,3.19,8.96-1.21,12.85-3.64,6.76-5.83,8.62-10.21l-10.71-3.24c-1.05,2.25-2.54,3.97-4.48,5.15-1.94,1.19-4.24,1.78-6.91,1.78-4.14,0-7.29-1.35-9.45-4.05-1.69-2.12-2.71-4.93-3.08-8.42h35.16c.42-5.82-.23-10.87-1.94-15.17-1.71-4.29-4.33-7.61-7.85-9.97Zm-12.4,5.96c3.93,0,6.81,1.21,8.64,3.65,1.3,1.72,2.13,4.18,2.53,7.33h-23.89c.5-2.81,1.43-5.1,2.82-6.86,2.16-2.74,5.46-4.12,9.9-4.12Z"/>
<path d="M608.04,81.1c-1.59-3.21-4.03-5.52-7.31-6.93s-7.09-2.12-11.41-2.12c-5.73,0-10.28,1.25-13.66,3.74s-5.66,5.79-6.86,9.9l9.9,3.11c.81-2.49,2.23-4.25,4.28-5.26,2.04-1.02,4.15-1.53,6.34-1.53,3.63,0,6.21,.79,7.74,2.38,1.27,1.32,2,3.26,2.19,5.81-1.95,.29-3.87,.57-5.72,.83-3.08,.44-5.92,.91-8.55,1.42-2.62,.51-4.91,1.08-6.86,1.71-2.58,.87-4.68,1.99-6.3,3.35-1.62,1.37-2.82,2.99-3.6,4.86-.78,1.88-1.17,3.98-1.17,6.32,0,2.67,.62,5.12,1.87,7.33,1.24,2.22,3.08,4,5.51,5.33,2.43,1.33,5.4,2,8.91,2,4.38,0,8.03-.82,10.96-2.45,2.25-1.26,4.28-3.08,6.1-5.45v6.55h9.5v-29.83c0-2.1-.09-4.04-.27-5.83s-.71-3.53-1.58-5.24Zm-9.99,25.56c-.36,1.11-1.06,2.29-2.09,3.55s-2.42,2.33-4.16,3.2-3.84,1.3-6.3,1.3c-1.71,0-3.14-.27-4.3-.81-1.16-.54-2.03-1.27-2.63-2.18-.6-.92-.9-1.97-.9-3.17,0-1.05,.23-1.96,.7-2.75,.46-.78,1.13-1.47,2-2.07,.87-.6,1.94-1.12,3.2-1.58,1.29-.42,2.77-.8,4.46-1.15,1.68-.34,3.69-.71,6.03-1.1,1.49-.25,3.2-.52,5.07-.82-.02,.83-.05,1.76-.09,2.82-.08,1.79-.4,3.37-.97,4.75Z"/>
<path d="M674.15,72.19c-3.24,0-6.18,.72-8.82,2.16-2.49,1.36-4.47,3.23-5.99,5.59-1.2-2.25-2.89-4.06-5.06-5.43-2.45-1.54-5.48-2.32-9.11-2.32-3.3,0-6.28,.73-8.93,2.18-2.04,1.12-3.76,2.56-5.15,4.32v-5.28h-9.58v48.6h10.93v-29.92c0-3.03,.83-5.49,2.5-7.38,1.67-1.89,3.88-2.83,6.64-2.83s5.1,.94,6.75,2.83c1.65,1.89,2.47,4.53,2.47,7.92v29.38h10.8v-29.92c0-2.13,.41-3.97,1.21-5.51,.81-1.54,1.91-2.71,3.29-3.51s2.94-1.19,4.68-1.19c2.82,0,5.05,.94,6.71,2.81,1.65,1.88,2.47,4.48,2.47,7.81v29.52h10.84v-32.26c0-5.25-1.43-9.49-4.3-12.71-2.87-3.22-6.98-4.84-12.35-4.84Z"/>
<path d="M736.04,75.59c-3.53-2.35-7.81-3.53-12.85-3.53-4.77,0-8.97,1.08-12.6,3.24s-6.46,5.2-8.5,9.11c-2.04,3.92-3.06,8.53-3.06,13.84,0,4.92,1.04,9.27,3.13,13.05,2.08,3.78,4.99,6.74,8.71,8.87s8.04,3.19,12.96,3.19,8.96-1.21,12.85-3.64,6.76-5.83,8.62-10.21l-10.71-3.24c-1.05,2.25-2.54,3.97-4.48,5.15-1.94,1.19-4.24,1.78-6.91,1.78-4.14,0-7.29-1.35-9.45-4.05-1.69-2.12-2.71-4.93-3.08-8.42h35.16c.42-5.82-.23-10.87-1.94-15.17-1.71-4.29-4.33-7.61-7.85-9.97Zm-12.4,5.96c3.93,0,6.81,1.21,8.64,3.65,1.3,1.72,2.13,4.18,2.53,7.33h-23.89c.5-2.81,1.43-5.1,2.82-6.86,2.16-2.74,5.46-4.12,9.9-4.12Z"/>
<rect x="760.41" y="112.06" width="10.84" height="9.95"/>
<rect x="760.41" y="57.21" width="10.84" height="48.6"/>
</g>
<g>
<path d="M431.81,327.81h-132.81v132.81h132.81v-132.81Zm-31.25,101.56h-70.31v-70.31h70.31v70.31Z"/>
<rect x="349.78" y="378.59" width="31.25" height="31.25"/>
<path d="M699,327.81h-132.81v132.81h132.81v-132.81Zm-31.25,101.56h-70.31v-70.31h70.31v70.31Z"/>
<rect x="616.97" y="378.59" width="31.25" height="31.25"/>
<path d="M431.81,595h-132.81v132.81h132.81v-132.81Zm-31.25,101.56h-70.31v-70.31h70.31v70.31Z"/>
<rect x="349.78" y="645.78" width="31.25" height="31.25"/>
<rect x="330.25" y="481.72" width="31.25" height="31.25"/>
<polygon points="391.97 544.22 391.97 575.47 423.22 575.47 423.22 544.22 392.75 544.22 392.75 512.97 361.5 512.97 361.5 544.22 391.97 544.22"/>
<rect x="517.75" y="387.97" width="31.25" height="31.25"/>
<rect x="455.25" y="359.06" width="31.25" height="60.16"/>
<rect x="486.5" y="327.81" width="31.25" height="31.25"/>
<polygon points="517.75 419.22 486.5 419.22 486.5 450.47 455.25 450.47 455.25 481.72 517.75 481.72 517.75 419.22"/>
<polygon points="486.5 575.47 486.5 605.94 517.75 605.94 517.75 636.4 580.25 636.4 580.25 605.15 517.75 605.15 517.75 574.69 486.5 574.69 486.5 512.97 455.25 512.97 455.25 575.47 486.5 575.47"/>
<rect x="517.75" y="481.72" width="31.25" height="62.5"/>
<path d="M611.5,574.69h87.5v-62.5h-31.25v-30.47h-57.03v31.25h-30.47v31.25h31.25v30.47Zm0-61.72h56.25v30.47h-56.25v-30.47Z"/>
<rect x="667.75" y="605.15" width="31.25" height="62.5"/>
<rect x="549" y="544.22" width="31.25" height="31.25"/>
<rect x="580.25" y="636.4" width="31.25" height="31.25"/>
<rect x="611.5" y="605.15" width="31.25" height="31.25"/>
<polygon points="642.75 727.81 642.75 698.9 667.75 698.9 667.75 667.65 611.5 667.65 611.5 727.81 642.75 727.81"/>
<rect x="455.25" y="605.94" width="31.25" height="59.38"/>
<polygon points="517.75 727.81 517.75 696.56 548.22 696.56 548.22 727.81 579.47 727.81 579.47 696.56 549 696.56 549 665.31 486.5 665.31 486.5 727.81 517.75 727.81"/>
<rect x="392.75" y="481.72" width="62.5" height="31.25"/>
<rect x="299" y="512.97" width="31.25" height="62.5"/>
</g>
</svg>